Katibeh-Regular - Kerning, Without Production Names.ufo
<glyph name="dammatan-ar" format="1">
  <advance width="0"/>
  <unicode hex="064C"/>
  <outline>
    <contour>
      <point x="79" y="856"/>
      <point x="76" y="889"/>
      <point x="54" y="900" type="curve" smooth="yes"/>
      <point x="35" y="910"/>
      <point x="15" y="900"/>
      <point x="7" y="889" type="curve"/>
      <point x="-12" y="863" type="line"/>
      <point x="-18" y="853"/>
      <point x="-27" y="827"/>
      <point x="8" y="809" type="curve" smooth="yes"/>
      <point x="26" y="799" type="line"/>
      <point x="12" y="783"/>
      <point x="-9" y="770"/>
      <point x="-28" y="768" type="curve"/>
      <point x="-26" y="783" type="line"/>
      <point x="-24" y="804"/>
      <point x="-37" y="813"/>
      <point x="-48" y="813" type="curve" smooth="yes"/>
      <point x="-54" y="813"/>
      <point x="-66" y="812"/>
      <point x="-80" y="804" type="curve"/>
      <point x="-88" y="770" type="line"/>
      <point x="-88" y="770"/>
      <point x="-73" y="778"/>
      <point x="-56" y="778" type="curve" smooth="yes"/>
      <point x="-51" y="778"/>
      <point x="-46" y="775"/>
      <point x="-47" y="766" type="curve" smooth="yes"/>
      <point x="-49" y="744"/>
      <point x="-54" y="719"/>
      <point x="-54" y="719" type="curve"/>
      <point x="-35" y="724"/>
      <point x="-16" y="731"/>
      <point x="1" y="741" type="curve" smooth="yes"/>
      <point x="22" y="753"/>
      <point x="40" y="768"/>
      <point x="49" y="787" type="curve"/>
      <point x="76" y="774" type="line"/>
      <point x="85" y="814" type="line"/>
      <point x="67" y="823" type="line"/>
    </contour>
    <contour>
      <point x="18" y="846" type="line" smooth="yes"/>
      <point x="5" y="853"/>
      <point x="10" y="863"/>
      <point x="10" y="863" type="curve" smooth="yes"/>
      <point x="10" y="863"/>
      <point x="22" y="871"/>
      <point x="34" y="866" type="curve" smooth="yes"/>
      <point x="49" y="860"/>
      <point x="45" y="841"/>
      <point x="44" y="832" type="curve"/>
    </contour>
    <contour>
      <point x="-2" y="904" type="move" name="top"/>
    </contour>
    <contour>
      <point x="-2" y="699" type="move" name="_top"/>
    </contour>
  </outline>
</glyph>
<glyph name="kasra-ar" format="1">
  <advance width="0"/>
  <unicode hex="0650"/>
  <outline>
    <contour>
      <point x="-88" y="-196" type="line"/>
      <point x="-81" y="-201" type="line"/>
      <point x="59" y="-146" type="line"/>
      <point x="85" y="-96" type="line"/>
      <point x="-60" y="-153" type="line"/>
    </contour>
    <contour>
      <point x="-2" y="-76" type="move" name="_bottom"/>
    </contour>
    <contour>
      <point x="-2" y="-201" type="move" name="bottom"/>
    </contour>
  </outline>
</glyph>
<glyph name="sukun-ar" format="1">
  <advance width="0"/>
  <unicode hex="0652"/>
  <outline>
    <contour>
      <point x="51" y="846"/>
      <point x="11" y="860"/>
      <point x="-25" y="877" type="curve"/>
      <point x="-25" y="834" type="line"/>
      <point x="-41" y="829"/>
      <point x="-49" y="813"/>
      <point x="-49" y="796" type="curve" smooth="yes"/>
      <point x="-49" y="789"/>
      <point x="-49" y="764"/>
      <point x="-49" y="754" type="curve" smooth="yes"/>
      <point x="-49" y="741"/>
      <point x="-45" y="730"/>
      <point x="-31" y="724" type="curve" smooth="yes"/>
      <point x="-22" y="719"/>
      <point x="-11" y="716"/>
      <point x="-1" y="716" type="curve" smooth="yes"/>
      <point x="9" y="716"/>
      <point x="20" y="719"/>
      <point x="29" y="723" type="curve" smooth="yes"/>
      <point x="44" y="732"/>
      <point x="52" y="745"/>
      <point x="52" y="762" type="curve" smooth="yes"/>
      <point x="52" y="771"/>
      <point x="51" y="794"/>
      <point x="51" y="806" type="curve" smooth="yes"/>
    </contour>
    <contour>
      <point x="-30" y="794"/>
      <point x="-18" y="798"/>
      <point x="-8" y="799" type="curve"/>
      <point x="-8" y="827" type="line"/>
      <point x="1" y="821"/>
      <point x="32" y="802"/>
      <point x="40" y="785" type="curve"/>
      <point x="31" y="772"/>
      <point x="16" y="766"/>
      <point x="0" y="766" type="curve" smooth="yes"/>
      <point x="-12" y="765"/>
      <point x="-26" y="770"/>
      <point x="-34" y="779" type="curve"/>
    </contour>
    <contour>
      <point x="2" y="877" type="move" name="top"/>
    </contour>
    <contour>
      <point x="2" y="696" type="move" name="_top"/>
    </contour>
  </outline>
</glyph>
<glyph name="five-ar" format="1">
  <advance width="363"/>
  <unicode hex="0665"/>
  <outline>
    <contour>
      <point x="315" y="332"/>
      <point x="289" y="385"/>
      <point x="253" y="429" type="curve" smooth="yes"/>
      <point x="213" y="477"/>
      <point x="160" y="512"/>
      <point x="116" y="542" type="curve"/>
      <point x="116" y="437" type="line"/>
      <point x="122" y="431"/>
      <point x="129" y="426"/>
      <point x="135" y="421" type="curve"/>
      <point x="75" y="372"/>
      <point x="52" y="316"/>
      <point x="52" y="219" type="curve" smooth="yes"/>
      <point x="52" y="160" type="line" smooth="yes"/>
      <point x="52" y="122"/>
      <point x="66" y="83"/>
      <point x="100" y="58" type="curve" smooth="yes"/>
      <point x="123" y="41"/>
      <point x="151" y="32"/>
      <point x="179" y="32" type="curve" smooth="yes"/>
      <point x="226" y="31"/>
      <point x="273" y="53"/>
      <point x="297" y="92" type="curve" smooth="yes"/>
      <point x="306" y="107"/>
      <point x="315" y="125"/>
      <point x="315" y="143" type="curve" smooth="yes"/>
      <point x="315" y="262" type="line" smooth="yes"/>
    </contour>
    <contour>
      <point x="100" y="137"/>
      <point x="86" y="210"/>
      <point x="85" y="210" type="curve"/>
      <point x="93" y="273"/>
      <point x="121" y="316"/>
      <point x="162" y="342" type="curve"/>
      <point x="162" y="398" type="line"/>
      <point x="213" y="353"/>
      <point x="280" y="282"/>
      <point x="290" y="208" type="curve"/>
      <point x="286" y="199"/>
      <point x="263" y="137"/>
      <point x="181" y="137" type="curve" smooth="yes"/>
    </contour>
  </outline>
</glyph>
<glyph name="hahabove-ar" format="1">
  <advance width="0"/>
  <unicode hex="06E1"/>
  <outline>
    <contour>
      <point x="83" y="790"/>
      <point x="43" y="803"/>
      <point x="0" y="806" type="curve" smooth="yes"/>
      <point x="-19" y="807"/>
      <point x="-41" y="807"/>
      <point x="-65" y="805" type="curve"/>
      <point x="-88" y="775" type="line"/>
      <point x="-83" y="767" type="line"/>
      <point x="-71" y="768"/>
      <point x="-45" y="770"/>
      <point x="-28" y="769" type="curve" smooth="yes"/>
      <point x="-12" y="768"/>
      <point x="25" y="764"/>
      <point x="37" y="758" type="curve"/>
      <point x="-5" y="737"/>
      <point x="-39" y="721"/>
      <point x="-66" y="708" type="curve"/>
      <point x="-60" y="700" type="line"/>
      <point x="20" y="714" type="line"/>
      <point x="39" y="720"/>
      <point x="53" y="727"/>
      <point x="63" y="738" type="curve" smooth="yes"/>
      <point x="76" y="752"/>
      <point x="83" y="772"/>
      <point x="83" y="790" type="curve"/>
    </contour>
    <contour>
      <point x="-3" y="807" type="move" name="top"/>
    </contour>
    <contour>
      <point x="-3" y="680" type="move" name="_top"/>
    </contour>
  </outline>
</glyph>
<glyph name="rhombusStopabove-ar" format="1">
  <advance width="0"/>
  <unicode hex="06EB"/>
  <outline>
    <contour>
      <point x="63" y="762" type="line"/>
      <point x="0" y="825" type="line"/>
      <point x="-62" y="762" type="line"/>
      <point x="0" y="699" type="line"/>
    </contour>
    <contour>
      <point x="0" y="794" type="line"/>
      <point x="33" y="762" type="line"/>
      <point x="0" y="729" type="line"/>
      <point x="-32" y="762" type="line"/>
    </contour>
    <contour>
      <point x="1" y="825" type="move" name="top"/>
    </contour>
    <contour>
      <point x="1" y="679" type="move" name="_top"/>
    </contour>
  </outline>
</glyph>
<glyph name="dammaCurly-ar" format="1">
  <advance width="0"/>
  <unicode hex="08E5"/>
  <outline>
    <contour>
      <point x="80" y="849"/>
      <point x="77" y="882"/>
      <point x="55" y="894" type="curve" smooth="yes"/>
      <point x="37" y="904"/>
      <point x="17" y="894"/>
      <point x="9" y="883" type="curve"/>
      <point x="-12" y="851" type="line"/>
      <point x="-20" y="837"/>
      <point x="-26" y="815"/>
      <point x="7" y="797" type="curve" smooth="yes"/>
      <point x="25" y="787" type="line"/>
      <point x="6" y="763"/>
      <point x="-19" y="748"/>
      <point x="-44" y="748" type="curve" smooth="yes"/>
      <point x="-64" y="748"/>
      <point x="-81" y="757"/>
      <point x="-89" y="780" type="curve"/>
      <point x="-100" y="774" type="line"/>
      <point x="-100" y="730"/>
      <point x="-77" y="703"/>
      <point x="-42" y="703" type="curve" smooth="yes"/>
      <point x="-14" y="703"/>
      <point x="16" y="720"/>
      <point x="49" y="775" type="curve"/>
      <point x="74" y="763" type="line"/>
      <point x="86" y="808" type="line"/>
      <point x="69" y="816" type="line"/>
    </contour>
    <contour>
      <point x="6" y="846"/>
      <point x="12" y="855"/>
      <point x="12" y="855" type="curve" smooth="yes"/>
      <point x="12" y="855"/>
      <point x="24" y="864"/>
      <point x="36" y="858" type="curve" smooth="yes"/>
      <point x="50" y="851"/>
      <point x="46" y="835"/>
      <point x="45" y="825" type="curve"/>
      <point x="20" y="839" type="line" smooth="yes"/>
    </contour>
    <contour>
      <point x="0" y="898" type="move" name="top"/>
    </contour>
    <contour>
      <point x="0" y="683" type="move" name="_top"/>
    </contour>
  </outline>
</glyph>
<glyph name="kasraCurly-ar" format="1">
  <advance width="0"/>
  <unicode hex="08E6"/>
  <outline>
    <contour>
      <point x="18" y="-218" type="line"/>
      <point x="31" y="-228"/>
      <point x="37" y="-236"/>
      <point x="37" y="-244" type="curve" smooth="yes"/>
      <point x="37" y="-261"/>
      <point x="10" y="-273"/>
      <point x="-16" y="-290" type="curve" smooth="yes"/>
      <point x="-41" y="-306"/>
      <point x="-65" y="-327"/>
      <point x="-65" y="-361" type="curve" smooth="yes"/>
      <point x="-65" y="-390"/>
      <point x="-52" y="-402"/>
      <point x="-26" y="-416" type="curve"/>
      <point x="-20" y="-400" type="line"/>
      <point x="-34" y="-391"/>
      <point x="-40" y="-384"/>
      <point x="-40" y="-377" type="curve" smooth="yes"/>
      <point x="-40" y="-361"/>
      <point x="-11" y="-347"/>
      <point x="17" y="-327" type="curve" smooth="yes"/>
      <point x="41" y="-311"/>
      <point x="63" y="-288"/>
      <point x="63" y="-256" type="curve" smooth="yes"/>
      <point x="63" y="-231"/>
      <point x="47" y="-211"/>
      <point x="25" y="-202" type="curve"/>
    </contour>
    <contour>
      <point x="-3" y="-184" type="move" name="_bottom"/>
    </contour>
    <contour>
      <point x="-3" y="-416" type="move" name="bottom"/>
    </contour>
  </outline>
</glyph>
<glyph name="whiteInBlackSquare" format="1">
  <advance width="263"/>
  <unicode hex="25A3"/>
  <outline>
    <contour>
      <point x="233" y="203" type="line"/>
      <point x="30" y="203" type="line"/>
      <point x="30" y="0" type="line"/>
      <point x="233" y="0" type="line"/>
    </contour>
    <contour>
      <point x="64" y="169" type="line"/>
      <point x="199" y="169" type="line"/>
      <point x="199" y="34" type="line"/>
      <point x="64" y="34" type="line"/>
    </contour>
    <contour>
      <point x="174" y="144" type="line"/>
      <point x="89" y="144" type="line"/>
      <point x="89" y="59" type="line"/>
      <point x="174" y="59" type="line"/>
    </contour>
  </outline>
</glyph>
<glyph name="fisheye" format="1">
  <advance width="312"/>
  <unicode hex="25C9"/>
  <outline>
    <contour>
      <point x="282" y="196"/>
      <point x="226" y="253"/>
      <point x="156" y="253" type="curve" smooth="yes"/>
      <point x="86" y="253"/>
      <point x="30" y="196"/>
      <point x="30" y="126" type="curve" smooth="yes"/>
      <point x="30" y="56"/>
      <point x="86" y="0"/>
      <point x="156" y="0" type="curve" smooth="yes"/>
      <point x="226" y="0"/>
      <point x="282" y="56"/>
      <point x="282" y="126" type="curve" smooth="yes"/>
    </contour>
    <contour>
      <point x="72" y="173"/>
      <point x="109" y="211"/>
      <point x="156" y="211" type="curve" smooth="yes"/>
      <point x="204" y="211"/>
      <point x="240" y="173"/>
      <point x="240" y="126" type="curve" smooth="yes"/>
      <point x="240" y="80"/>
      <point x="204" y="42"/>
      <point x="156" y="42" type="curve" smooth="yes"/>
      <point x="109" y="42"/>
      <point x="72" y="80"/>
      <point x="72" y="126" type="curve" smooth="yes"/>
    </contour>
    <contour>
      <point x="209" y="155"/>
      <point x="186" y="179"/>
      <point x="156" y="179" type="curve" smooth="yes"/>
      <point x="128" y="179"/>
      <point x="104" y="155"/>
      <point x="104" y="126" type="curve" smooth="yes"/>
      <point x="104" y="98"/>
      <point x="128" y="74"/>
      <point x="156" y="74" type="curve" smooth="yes"/>
      <point x="186" y="74"/>
      <point x="209" y="98"/>
      <point x="209" y="126" type="curve" smooth="yes"/>
    </contour>
  </outline>
</glyph>
<glyph name="hehgoal-ar.init" format="1">
  <advance width="204"/>
  <unicode hex="FBA8"/>
  <outline>
    <contour>
      <point x="113" y="-34" type="line"/>
      <point x="49" y="-34"/>
      <point x="-12" y="-78"/>
      <point x="-12" y="-137" type="curve" smooth="yes"/>
      <point x="-12" y="-171"/>
      <point x="6" y="-191"/>
      <point x="32" y="-191" type="curve" smooth="yes"/>
      <point x="53" y="-191"/>
      <point x="67" y="-180"/>
      <point x="72" y="-156" type="curve"/>
      <point x="44" y="-158"/>
      <point x="29" y="-144"/>
      <point x="29" y="-120" type="curve" smooth="yes"/>
      <point x="29" y="-86"/>
      <point x="69" y="-56"/>
      <point x="113" y="-53" type="curve"/>
    </contour>
    <contour>
      <point x="164" y="183"/>
      <point x="157" y="223"/>
      <point x="139" y="256" type="curve" smooth="yes"/>
      <point x="125" y="281"/>
      <point x="105" y="303"/>
      <point x="79" y="321" type="curve"/>
      <point x="50" y="215" type="line"/>
      <point x="88" y="196"/>
      <point x="114" y="170"/>
      <point x="125" y="131" type="curve"/>
      <point x="120" y="127"/>
      <point x="116" y="124"/>
      <point x="105" y="119" type="curve" smooth="yes"/>
      <point x="81" y="108"/>
      <point x="51" y="106"/>
      <point x="29" y="106" type="curve" smooth="yes"/>
      <point x="-17" y="106" type="line" smooth="yes"/>
      <point x="-46" y="106"/>
      <point x="-70" y="83"/>
      <point x="-70" y="53" type="curve" smooth="yes"/>
      <point x="-70" y="23"/>
      <point x="-46" y="0"/>
      <point x="-17" y="0" type="curve" smooth="yes"/>
      <point x="37" y="0" type="line" smooth="yes"/>
      <point x="61" y="0"/>
      <point x="105" y="15"/>
      <point x="130" y="39" type="curve" smooth="yes"/>
      <point x="146" y="54"/>
      <point x="164" y="82"/>
      <point x="164" y="117" type="curve" smooth="yes"/>
      <point x="164" y="135"/>
      <point x="164" y="134"/>
      <point x="164" y="148" type="curve" smooth="yes"/>
    </contour>
    <contour>
      <point x="-12" y="301" type="move" name="top"/>
    </contour>
    <contour>
      <point x="32" y="-211" type="move" name="bottom"/>
    </contour>
  </outline>
</glyph>
<glyph name="dotbelow-ar" format="1">
  <advance width="0"/>
  <unicode hex="FBB3"/>
  <outline>
    <contour>
      <point x="-18" y="-101"/>
      <point x="-43" y="-129"/>
      <point x="-58" y="-146" type="curve"/>
      <point x="-37" y="-158"/>
      <point x="-19" y="-175"/>
      <point x="6" y="-200" type="curve"/>
      <point x="34" y="-173"/>
      <point x="45" y="-157"/>
      <point x="58" y="-139" type="curve"/>
      <point x="46" y="-120"/>
      <point x="18" y="-96"/>
      <point x="-5" y="-84" type="curve"/>
    </contour>
    <contour>
      <point x="0" y="-64" type="move" name="_bottom"/>
    </contour>
    <contour>
      <point x="0" y="-220" type="move" name="bottom"/>
    </contour>
  </outline>
</glyph>
<glyph name="twodotshorizontalbelow-ar" format="1">
  <advance width="0"/>
  <unicode hex="FBB5"/>
  <outline>
    <contour>
      <point x="-85" y="-159"/>
      <point x="-67" y="-176"/>
      <point x="-42" y="-201" type="curve"/>
      <point x="-22" y="-181"/>
      <point x="-11" y="-168"/>
      <point x="-1" y="-155" type="curve"/>
      <point x="15" y="-167"/>
      <point x="31" y="-181"/>
      <point x="50" y="-201" type="curve"/>
      <point x="78" y="-174"/>
      <point x="90" y="-158"/>
      <point x="103" y="-140" type="curve"/>
      <point x="91" y="-121"/>
      <point x="63" y="-97"/>
      <point x="39" y="-85" type="curve"/>
      <point x="31" y="-97"/>
      <point x="16" y="-114"/>
      <point x="2" y="-129" type="curve"/>
      <point x="-12" y="-113"/>
      <point x="-34" y="-95"/>
      <point x="-53" y="-85" type="curve"/>
      <point x="-66" y="-102"/>
      <point x="-91" y="-130"/>
      <point x="-106" y="-147" type="curve"/>
    </contour>
    <contour>
      <point x="-2" y="-65" type="move" name="_bottom"/>
    </contour>
    <contour>
      <point x="-2" y="-221" type="move" name="bottom"/>
    </contour>
  </outline>
</glyph>
<glyph name="sad_meem-ar.init" format="1">
  <advance width="798"/>
  <unicode hex="FCB3"/>
  <outline>
    <contour>
      <point x="673" y="361"/>
      <point x="643" y="373"/>
      <point x="603" y="373" type="curve" smooth="yes"/>
      <point x="550" y="373"/>
      <point x="495" y="337"/>
      <point x="451" y="294" type="curve" smooth="yes"/>
      <point x="419" y="263"/>
      <point x="392" y="227"/>
      <point x="374" y="198" type="curve"/>
      <point x="334" y="206"/>
      <point x="320" y="240"/>
      <point x="302" y="269" type="curve"/>
      <point x="289" y="292"/>
      <point x="270" y="311"/>
      <point x="239" y="311" type="curve"/>
      <point x="195" y="311"/>
      <point x="157" y="274"/>
      <point x="133" y="229" type="curve" smooth="yes"/>
      <point x="115" y="196"/>
      <point x="105" y="157"/>
      <point x="105" y="126" type="curve"/>
      <point x="100" y="122"/>
      <point x="79" y="106"/>
      <point x="46" y="106" type="curve" smooth="yes"/>
      <point x="-17" y="106" type="line" smooth="yes"/>
      <point x="-46" y="106"/>
      <point x="-70" y="81"/>
      <point x="-70" y="52" type="curve" smooth="yes"/>
      <point x="-70" y="23"/>
      <point x="-46" y="0"/>
      <point x="-17" y="0" type="curve" smooth="yes"/>
      <point x="77" y="0" type="line" smooth="yes"/>
      <point x="145" y="0"/>
      <point x="194" y="24"/>
      <point x="256" y="-24" type="curve"/>
      <point x="274" y="101" type="line"/>
      <point x="258" y="117"/>
      <point x="237" y="122"/>
      <point x="218" y="128" type="curve" smooth="yes"/>
      <point x="197" y="135"/>
      <point x="177" y="142"/>
      <point x="165" y="167" type="curve"/>
      <point x="181" y="196"/>
      <point x="211" y="216"/>
      <point x="237" y="216" type="curve" smooth="yes"/>
      <point x="282" y="212"/>
      <point x="293" y="171"/>
      <point x="326" y="135" type="curve" smooth="yes"/>
      <point x="353" y="106"/>
      <point x="392" y="80"/>
      <point x="474" y="80" type="curve" smooth="yes"/>
      <point x="561" y="80"/>
      <point x="625" y="108"/>
      <point x="666" y="143" type="curve" smooth="yes"/>
      <point x="706" y="177"/>
      <point x="722" y="209"/>
      <point x="738" y="266" type="curve"/>
      <point x="727" y="296"/>
      <point x="714" y="321"/>
      <point x="696" y="339" type="curve" smooth="yes"/>
    </contour>
    <contour>
      <point x="585" y="198"/>
      <point x="550" y="192"/>
      <point x="501" y="192" type="curve" smooth="yes"/>
      <point x="417" y="192" type="line" smooth="yes"/>
      <point x="417" y="192"/>
      <point x="434" y="222"/>
      <point x="466" y="246" type="curve"/>
      <point x="493" y="268"/>
      <point x="532" y="289"/>
      <point x="579" y="289" type="curve" smooth="yes"/>
      <point x="606" y="289"/>
      <point x="625" y="280"/>
      <point x="639" y="269" type="curve" smooth="yes"/>
      <point x="658" y="255"/>
      <point x="665" y="237"/>
      <point x="665" y="237" type="curve"/>
      <point x="662" y="234"/>
      <point x="650" y="217"/>
      <point x="609" y="205" type="curve" smooth="yes"/>
    </contour>
    <contour>
      <point x="399" y="0" type="move" name="caret_1"/>
    </contour>
    <contour>
      <point x="474" y="40" type="move" name="bottom_1"/>
    </contour>
    <contour>
      <point x="583" y="403" type="move" name="top_1"/>
    </contour>
    <contour>
      <point x="229" y="341" type="move" name="top_2"/>
    </contour>
    <contour>
      <point x="160" y="-34" type="move" name="bottom_2"/>
    </contour>
  </outline>
</glyph>
<glyph name="tah_alefMaksura-ar" format="1">
  <advance width="930"/>
  <unicode hex="FCF5"/>
  <outline>
    <contour>
      <point x="70" y="-81"/>
      <point x="78" y="-142"/>
      <point x="119" y="-189" type="curve" smooth="yes"/>
      <point x="148" y="-223"/>
      <point x="201" y="-249"/>
      <point x="271" y="-249" type="curve" smooth="yes"/>
      <point x="320" y="-249"/>
      <point x="377" y="-239"/>
      <point x="427" y="-220" type="curve" smooth="yes"/>
      <point x="483" y="-198"/>
      <point x="533" y="-165"/>
      <point x="545" y="-119" type="curve" smooth="yes"/>
      <point x="552" y="-91"/>
      <point x="554" y="-79"/>
      <point x="558" y="-58" type="curve" smooth="yes"/>
      <point x="564" y="-28"/>
      <point x="526" y="18"/>
      <point x="486" y="30" type="curve"/>
      <point x="541" y="51"/>
      <point x="587" y="67"/>
      <point x="626" y="81" type="curve" smooth="yes"/>
      <point x="793" y="139"/>
      <point x="829" y="154"/>
      <point x="870" y="267" type="curve"/>
      <point x="859" y="303"/>
      <point x="845" y="332"/>
      <point x="824" y="352" type="curve" smooth="yes"/>
      <point x="802" y="373"/>
      <point x="773" y="385"/>
      <point x="735" y="385" type="curve" smooth="yes"/>
      <point x="691" y="385"/>
      <point x="637" y="352"/>
      <point x="595" y="305" type="curve"/>
      <point x="602" y="347"/>
      <point x="601" y="383"/>
      <point x="597" y="416" type="curve" smooth="yes"/>
      <point x="593" y="454"/>
      <point x="584" y="491"/>
      <point x="576" y="532" type="curve" smooth="yes"/>
      <point x="570" y="562"/>
      <point x="577" y="575"/>
      <point x="597" y="594" type="curve"/>
      <point x="566" y="616"/>
      <point x="548" y="642"/>
      <point x="531" y="682" type="curve"/>
      <point x="505" y="678"/>
      <point x="491" y="658"/>
      <point x="484" y="637" type="curve" smooth="yes"/>
      <point x="475" y="609"/>
      <point x="478" y="579"/>
      <point x="478" y="579" type="curve"/>
      <point x="493" y="565" type="line"/>
      <point x="517" y="506"/>
      <point x="533" y="458"/>
      <point x="541" y="408" type="curve" smooth="yes"/>
      <point x="549" y="363"/>
      <point x="552" y="316"/>
      <point x="550" y="258" type="curve"/>
      <point x="534" y="238"/>
      <point x="489" y="160"/>
      <point x="472" y="117" type="curve"/>
      <point x="428" y="100"/>
      <point x="406" y="91"/>
      <point x="364" y="75" type="curve"/>
      <point x="338" y="-9" type="line"/>
      <point x="349" y="-30" type="line"/>
      <point x="412" y="-33"/>
      <point x="495" y="-40"/>
      <point x="492" y="-81" type="curve"/>
      <point x="468" y="-104"/>
      <point x="424" y="-120"/>
      <point x="374" y="-128" type="curve" smooth="yes"/>
      <point x="346" y="-133"/>
      <point x="316" y="-135"/>
      <point x="287" y="-135" type="curve" smooth="yes"/>
      <point x="229" y="-135"/>
      <point x="190" y="-121"/>
      <point x="163" y="-102" type="curve" smooth="yes"/>
      <point x="121" y="-72"/>
      <point x="109" y="-33"/>
      <point x="109" y="4" type="curve"/>
      <point x="111" y="52"/>
      <point x="134" y="94"/>
      <point x="143" y="104" type="curve"/>
      <point x="127" y="120" type="line"/>
      <point x="107" y="96"/>
      <point x="95" y="72"/>
      <point x="87" y="46" type="curve" smooth="yes"/>
      <point x="70" y="-4"/>
      <point x="70" y="-50"/>
      <point x="70" y="-63" type="curve" smooth="yes"/>
    </contour>
    <contour>
      <point x="545" y="149"/>
      <point x="562" y="186"/>
      <point x="592" y="222" type="curve" smooth="yes"/>
      <point x="619" y="256"/>
      <point x="657" y="290"/>
      <point x="703" y="300" type="curve" smooth="yes"/>
      <point x="744" y="308"/>
      <point x="771" y="297"/>
      <point x="797" y="266" type="curve"/>
      <point x="766" y="226"/>
      <point x="726" y="209"/>
      <point x="651" y="182" type="curve" smooth="yes"/>
      <point x="543" y="143" type="line"/>
    </contour>
    <contour>
      <point x="512" y="0" type="move" name="caret_1"/>
    </contour>
    <contour>
      <point x="712" y="0" type="move" name="bottom_1"/>
    </contour>
    <contour>
      <point x="755" y="415" type="move" name="top_1"/>
    </contour>
    <contour>
      <point x="280" y="84" type="move" name="top_2"/>
    </contour>
    <contour>
      <point x="281" y="-279" type="move" name="bottom_2"/>
    </contour>
  </outline>
</glyph>
<glyph name="sad_alefMaksura-ar" format="1">
  <advance width="1043"/>
  <unicode hex="FD05"/>
  <outline>
    <contour>
      <point x="70" y="-58"/>
      <point x="79" y="-117"/>
      <point x="121" y="-163" type="curve" smooth="yes"/>
      <point x="150" y="-195"/>
      <point x="204" y="-218"/>
      <point x="278" y="-218" type="curve" smooth="yes"/>
      <point x="325" y="-218"/>
      <point x="381" y="-201"/>
      <point x="427" y="-175" type="curve" smooth="yes"/>
      <point x="472" y="-151"/>
      <point x="507" y="-120"/>
      <point x="517" y="-89" type="curve" smooth="yes"/>
      <point x="521" y="-76"/>
      <point x="525" y="-57"/>
      <point x="531" y="-25" type="curve" smooth="yes"/>
      <point x="543" y="34"/>
      <point x="509" y="46"/>
      <point x="473" y="54" type="curve" smooth="yes"/>
      <point x="449" y="59"/>
      <point x="425" y="62"/>
      <point x="413" y="76" type="curve"/>
      <point x="420" y="95"/>
      <point x="443" y="126"/>
      <point x="476" y="126" type="curve" smooth="yes"/>
      <point x="526" y="126"/>
      <point x="537" y="83"/>
      <point x="571" y="45" type="curve" smooth="yes"/>
      <point x="598" y="16"/>
      <point x="637" y="-10"/>
      <point x="719" y="-10" type="curve" smooth="yes"/>
      <point x="806" y="-10"/>
      <point x="870" y="18"/>
      <point x="911" y="53" type="curve" smooth="yes"/>
      <point x="951" y="87"/>
      <point x="967" y="119"/>
      <point x="983" y="176" type="curve"/>
      <point x="972" y="206"/>
      <point x="959" y="231"/>
      <point x="941" y="249" type="curve" smooth="yes"/>
      <point x="918" y="271"/>
      <point x="888" y="283"/>
      <point x="848" y="283" type="curve" smooth="yes"/>
      <point x="795" y="283"/>
      <point x="740" y="247"/>
      <point x="696" y="204" type="curve" smooth="yes"/>
      <point x="664" y="173"/>
      <point x="637" y="137"/>
      <point x="619" y="108" type="curve"/>
      <point x="579" y="116"/>
      <point x="565" y="150"/>
      <point x="547" y="179" type="curve" smooth="yes"/>
      <point x="534" y="202"/>
      <point x="518" y="221"/>
      <point x="486" y="221" type="curve" smooth="yes"/>
      <point x="457" y="221"/>
      <point x="426" y="200"/>
      <point x="401" y="169" type="curve" smooth="yes"/>
      <point x="381" y="145"/>
      <point x="365" y="114"/>
      <point x="355" y="82" type="curve" smooth="yes"/>
      <point x="349" y="63"/>
      <point x="346" y="39"/>
      <point x="355" y="19" type="curve" smooth="yes"/>
      <point x="362" y="3"/>
      <point x="376" y="-11"/>
      <point x="403" y="-15" type="curve"/>
      <point x="466" y="-25"/>
      <point x="479" y="-29"/>
      <point x="481" y="-41" type="curve"/>
      <point x="457" y="-62"/>
      <point x="429" y="-78"/>
      <point x="396" y="-89" type="curve" smooth="yes"/>
      <point x="362" y="-100"/>
      <point x="324" y="-105"/>
      <point x="281" y="-105" type="curve" smooth="yes"/>
      <point x="229" y="-105"/>
      <point x="190" y="-90"/>
      <point x="164" y="-72" type="curve" smooth="yes"/>
      <point x="124" y="-44"/>
      <point x="109" y="-7"/>
      <point x="110" y="34" type="curve" smooth="yes"/>
      <point x="111" y="82"/>
      <point x="134" y="124"/>
      <point x="143" y="134" type="curve"/>
      <point x="127" y="150" type="line"/>
      <point x="105" y="126"/>
      <point x="94" y="98"/>
      <point x="87" y="76" type="curve" smooth="yes"/>
      <point x="70" y="24"/>
      <point x="70" y="-18"/>
      <point x="70" y="-20" type="curve" smooth="yes"/>
    </contour>
    <contour>
      <point x="662" y="102"/>
      <point x="679" y="132"/>
      <point x="711" y="156" type="curve"/>
      <point x="738" y="178"/>
      <point x="777" y="199"/>
      <point x="824" y="199" type="curve" smooth="yes"/>
      <point x="851" y="199"/>
      <point x="870" y="190"/>
      <point x="884" y="179" type="curve" smooth="yes"/>
      <point x="903" y="165"/>
      <point x="910" y="147"/>
      <point x="910" y="147" type="curve"/>
      <point x="907" y="144"/>
      <point x="895" y="127"/>
      <point x="854" y="115" type="curve" smooth="yes"/>
      <point x="830" y="108"/>
      <point x="795" y="102"/>
      <point x="746" y="102" type="curve" smooth="yes"/>
      <point x="662" y="102" type="line" smooth="yes"/>
    </contour>
    <contour>
      <point x="522" y="0" type="move" name="caret_1"/>
    </contour>
    <contour>
      <point x="719" y="-47" type="move" name="bottom_1"/>
    </contour>
    <contour>
      <point x="828" y="313" type="move" name="top_1"/>
    </contour>
    <contour>
      <point x="265" y="106" type="move" name="top_2"/>
    </contour>
    <contour>
      <point x="288" y="-248" type="move" name="bottom_2"/>
    </contour>
  </outline>
</glyph>
<glyph name="sad_reh-ar" format="1">
  <advance width="852"/>
  <unicode hex="FD0F"/>
  <outline>
    <contour>
      <point x="5" y="-203"/>
      <point x="24" y="-237"/>
      <point x="31" y="-257" type="curve"/>
      <point x="34" y="-257" type="line"/>
      <point x="34" y="-200" type="line"/>
      <point x="49" y="-200"/>
      <point x="112" y="-195"/>
      <point x="152" y="-167" type="curve" smooth="yes"/>
      <point x="186" y="-144"/>
      <point x="213" y="-110"/>
      <point x="228" y="-69" type="curve" smooth="yes"/>
      <point x="239" y="-37"/>
      <point x="244" y="8"/>
      <point x="240" y="45" type="curve"/>
      <point x="277" y="52"/>
      <point x="304" y="57"/>
      <point x="342" y="65" type="curve"/>
      <point x="345" y="45"/>
      <point x="360" y="24"/>
      <point x="381" y="12" type="curve"/>
      <point x="378" y="4"/>
      <point x="368" y="-17"/>
      <point x="368" y="-17" type="curve"/>
      <point x="388" y="-39" type="line"/>
      <point x="411" y="0" type="line"/>
      <point x="455" y="-6"/>
      <point x="493" y="-10"/>
      <point x="527" y="-10" type="curve" smooth="yes"/>
      <point x="606" y="-10"/>
      <point x="674" y="10"/>
      <point x="722" y="54" type="curve" smooth="yes"/>
      <point x="755" y="84"/>
      <point x="779" y="124"/>
      <point x="792" y="176" type="curve"/>
      <point x="782" y="202"/>
      <point x="771" y="223"/>
      <point x="757" y="240" type="curve" smooth="yes"/>
      <point x="734" y="268"/>
      <point x="702" y="283"/>
      <point x="656" y="283" type="curve" smooth="yes"/>
      <point x="611" y="283"/>
      <point x="565" y="257"/>
      <point x="525" y="222" type="curve" smooth="yes"/>
      <point x="483" y="186"/>
      <point x="447" y="141"/>
      <point x="426" y="106" type="curve"/>
      <point x="403" y="106"/>
      <point x="383" y="107"/>
      <point x="372" y="118" type="curve" smooth="yes"/>
      <point x="364" y="126"/>
      <point x="360" y="138"/>
      <point x="361" y="157" type="curve"/>
      <point x="294" y="149"/>
      <point x="240" y="138"/>
      <point x="180" y="122" type="curve"/>
      <point x="180" y="42" type="line"/>
      <point x="180" y="-11"/>
      <point x="159" y="-45"/>
      <point x="111" y="-72" type="curve" smooth="yes"/>
      <point x="67" y="-98"/>
      <point x="-7" y="-100"/>
      <point x="-40" y="-101" type="curve"/>
      <point x="-40" y="-206" type="line"/>
    </contour>
    <contour>
      <point x="470" y="102"/>
      <point x="489" y="133"/>
      <point x="524" y="159" type="curve" smooth="yes"/>
      <point x="551" y="180"/>
      <point x="588" y="199"/>
      <point x="632" y="199" type="curve" smooth="yes"/>
      <point x="656" y="199"/>
      <point x="674" y="192"/>
      <point x="688" y="183" type="curve"/>
      <point x="710" y="167"/>
      <point x="719" y="147"/>
      <point x="719" y="147" type="curve"/>
      <point x="716" y="143"/>
      <point x="688" y="102"/>
      <point x="554" y="102" type="curve" smooth="yes"/>
      <point x="470" y="102" type="line" smooth="yes"/>
    </contour>
    <contour>
      <point x="441" y="0" type="move" name="caret_1"/>
    </contour>
    <contour>
      <point x="527" y="-55" type="move" name="bottom_1"/>
    </contour>
    <contour>
      <point x="636" y="300" type="move" name="top_1"/>
    </contour>
    <contour>
      <point x="180" y="162" type="move" name="top_2"/>
    </contour>
    <contour>
      <point x="54" y="-277" type="move" name="bottom_2"/>
    </contour>
  </outline>
</glyph>
<glyph name="dal-ar.fina" format="1">
  <advance width="443"/>
  <unicode hex="FEAA"/>
  <outline>
    <contour>
      <point x="374" y="106"/>
      <point x="340" y="141"/>
      <point x="317" y="187" type="curve" smooth="yes"/>
      <point x="289" y="241"/>
      <point x="276" y="309"/>
      <point x="268" y="354" type="curve"/>
      <point x="233" y="301" type="line"/>
      <point x="233" y="279"/>
      <point x="235" y="257"/>
      <point x="242" y="220" type="curve" smooth="yes"/>
      <point x="249" y="184"/>
      <point x="255" y="162"/>
      <point x="270" y="129" type="curve"/>
      <point x="258" y="119"/>
      <point x="243" y="113"/>
      <point x="227" y="108" type="curve" smooth="yes"/>
      <point x="202" y="101"/>
      <point x="176" y="97"/>
      <point x="149" y="97" type="curve" smooth="yes"/>
      <point x="114" y="97"/>
      <point x="73" y="109"/>
      <point x="53" y="139" type="curve"/>
      <point x="53" y="139"/>
      <point x="50" y="104"/>
      <point x="50" y="78" type="curve" smooth="yes"/>
      <point x="50" y="71"/>
      <point x="48" y="43"/>
      <point x="68" y="21" type="curve" smooth="yes"/>
      <point x="82" y="5"/>
      <point x="107" y="-8"/>
      <point x="151" y="-8" type="curve" smooth="yes"/>
      <point x="196" y="-8"/>
      <point x="229" y="1"/>
      <point x="252" y="17" type="curve" smooth="yes"/>
      <point x="274" y="32"/>
      <point x="288" y="53"/>
      <point x="294" y="77" type="curve"/>
      <point x="305" y="58"/>
      <point x="321" y="39"/>
      <point x="342" y="24" type="curve" smooth="yes"/>
      <point x="363" y="10"/>
      <point x="389" y="0"/>
      <point x="417" y="0" type="curve" smooth="yes"/>
      <point x="443" y="0" type="line"/>
      <point x="443" y="106" type="line"/>
      <point x="422" y="106" type="line" smooth="yes"/>
    </contour>
    <contour>
      <point x="205" y="356" type="move" name="top"/>
    </contour>
    <contour>
      <point x="171" y="-34" type="move" name="bottom"/>
    </contour>
  </outline>
</glyph>
<glyph name="sad-ar.init" format="1">
  <advance width="633"/>
  <unicode hex="FEBB"/>
  <outline>
    <contour>
      <point x="562" y="206"/>
      <point x="549" y="231"/>
      <point x="531" y="249" type="curve" smooth="yes"/>
      <point x="508" y="271"/>
      <point x="478" y="283"/>
      <point x="438" y="283" type="curve" smooth="yes"/>
      <point x="385" y="283"/>
      <point x="330" y="247"/>
      <point x="286" y="204" type="curve" smooth="yes"/>
      <point x="253" y="172"/>
      <point x="226" y="135"/>
      <point x="208" y="106" type="curve"/>
      <point x="189" y="106"/>
      <point x="165" y="113"/>
      <point x="153" y="129" type="curve" smooth="yes"/>
      <point x="145" y="140"/>
      <point x="143" y="156"/>
      <point x="143" y="176" type="curve" smooth="yes"/>
      <point x="143" y="176"/>
      <point x="128" y="184"/>
      <point x="128" y="184" type="curve"/>
      <point x="126" y="175"/>
      <point x="122" y="152"/>
      <point x="106" y="133" type="curve" smooth="yes"/>
      <point x="93" y="118"/>
      <point x="72" y="106"/>
      <point x="36" y="106" type="curve" smooth="yes"/>
      <point x="36" y="106"/>
      <point x="-17" y="106"/>
      <point x="-17" y="106" type="curve" smooth="yes"/>
      <point x="-46" y="106"/>
      <point x="-70" y="82"/>
      <point x="-70" y="53" type="curve" smooth="yes"/>
      <point x="-70" y="24"/>
      <point x="-46" y="0"/>
      <point x="-17" y="0" type="curve" smooth="yes"/>
      <point x="18" y="0" type="line" smooth="yes"/>
      <point x="101" y="0"/>
      <point x="119" y="44"/>
      <point x="123" y="55" type="curve"/>
      <point x="133" y="37"/>
      <point x="139" y="26"/>
      <point x="163" y="12" type="curve"/>
      <point x="161" y="8"/>
      <point x="155" y="-5"/>
      <point x="149" y="-17" type="curve"/>
      <point x="170" y="-39" type="line"/>
      <point x="192" y="0" type="line"/>
      <point x="236" y="-6"/>
      <point x="274" y="-10"/>
      <point x="309" y="-10" type="curve" smooth="yes"/>
      <point x="396" y="-10"/>
      <point x="460" y="18"/>
      <point x="501" y="53" type="curve" smooth="yes"/>
      <point x="541" y="87"/>
      <point x="557" y="119"/>
      <point x="573" y="176" type="curve"/>
    </contour>
    <contour>
      <point x="441" y="199"/>
      <point x="460" y="190"/>
      <point x="474" y="179" type="curve" smooth="yes"/>
      <point x="493" y="165"/>
      <point x="500" y="147"/>
      <point x="500" y="147" type="curve"/>
      <point x="497" y="144"/>
      <point x="485" y="127"/>
      <point x="444" y="115" type="curve" smooth="yes"/>
      <point x="420" y="108"/>
      <point x="385" y="102"/>
      <point x="336" y="102" type="curve" smooth="yes"/>
      <point x="252" y="102" type="line" smooth="yes"/>
      <point x="252" y="102"/>
      <point x="269" y="132"/>
      <point x="301" y="156" type="curve" smooth="yes"/>
      <point x="328" y="178"/>
      <point x="367" y="199"/>
      <point x="414" y="199" type="curve" smooth="yes"/>
    </contour>
    <contour>
      <point x="418" y="312" type="move" name="top"/>
    </contour>
    <contour>
      <point x="309" y="-35" type="move" name="bottom"/>
    </contour>
  </outline>
</glyph>
<glyph name="kaf-ar.init" format="1">
  <advance width="351"/>
  <unicode hex="FEDB"/>
  <outline>
    <contour>
      <point x="341" y="657" type="line"/>
      <point x="295" y="628"/>
      <point x="276" y="617"/>
      <point x="200" y="580" type="curve" smooth="yes"/>
      <point x="159" y="560"/>
      <point x="114" y="538"/>
      <point x="71" y="514" type="curve" smooth="yes"/>
      <point x="40" y="496"/>
      <point x="1" y="473"/>
      <point x="-4" y="435" type="curve" smooth="yes"/>
      <point x="-7" y="415"/>
      <point x="-7" y="397"/>
      <point x="-7" y="365" type="curve" smooth="yes"/>
      <point x="-7" y="305"/>
      <point x="-1" y="289"/>
      <point x="43" y="255" type="curve"/>
      <point x="43" y="289" type="line"/>
      <point x="83" y="260"/>
      <point x="127" y="202"/>
      <point x="149" y="151" type="curve"/>
      <point x="126" y="119"/>
      <point x="90" y="106"/>
      <point x="26" y="106" type="curve" smooth="yes"/>
      <point x="-17" y="106" type="line" smooth="yes"/>
      <point x="-46" y="106"/>
      <point x="-70" y="82"/>
      <point x="-70" y="53" type="curve" smooth="yes"/>
      <point x="-70" y="24"/>
      <point x="-46" y="0"/>
      <point x="-17" y="0" type="curve" smooth="yes"/>
      <point x="59" y="0" type="line" smooth="yes"/>
      <point x="116" y="0"/>
      <point x="155" y="20"/>
      <point x="178" y="55" type="curve" smooth="yes"/>
      <point x="198" y="84"/>
      <point x="207" y="123"/>
      <point x="207" y="170" type="curve" smooth="yes"/>
      <point x="207" y="211"/>
      <point x="180" y="265"/>
      <point x="145" y="314" type="curve" smooth="yes"/>
      <point x="116" y="354"/>
      <point x="82" y="391"/>
      <point x="52" y="414" type="curve"/>
      <point x="66" y="424"/>
      <point x="122" y="449"/>
      <point x="180" y="475" type="curve" smooth="yes"/>
      <point x="234" y="500"/>
      <point x="289" y="526"/>
      <point x="316" y="544" type="curve"/>
    </contour>
    <contour>
      <point x="101" y="590" type="move" name="top"/>
    </contour>
    <contour>
      <point x="56" y="-34" type="move" name="bottom"/>
    </contour>
  </outline>
</glyph>
<glyph name="lam_alef-ar" format="1">
  <advance width="509"/>
  <unicode hex="FEFB"/>
  <outline>
    <contour>
      <point x="427" y="617"/>
      <point x="412" y="643"/>
      <point x="396" y="682" type="curve"/>
      <point x="372" y="679"/>
      <point x="358" y="662"/>
      <point x="350" y="643" type="curve" smooth="yes"/>
      <point x="338" y="614"/>
      <point x="340" y="582"/>
      <point x="340" y="582" type="curve"/>
      <point x="355" y="567" type="line"/>
      <point x="361" y="550"/>
      <point x="374" y="499"/>
      <point x="375" y="432" type="curve" smooth="yes"/>
      <point x="376" y="384"/>
      <point x="371" y="328"/>
      <point x="353" y="276" type="curve"/>
      <point x="334" y="319"/>
      <point x="291" y="388"/>
      <point x="236" y="455" type="curve" smooth="yes"/>
      <point x="182" y="521"/>
      <point x="112" y="590"/>
      <point x="43" y="630" type="curve"/>
      <point x="15" y="528" type="line"/>
      <point x="97" y="442" type="line"/>
      <point x="104" y="469" type="line"/>
      <point x="151" y="428"/>
      <point x="177" y="400"/>
      <point x="205" y="367" type="curve" smooth="yes"/>
      <point x="252" y="311"/>
      <point x="279" y="273"/>
      <point x="314" y="209" type="curve"/>
      <point x="297" y="183"/>
      <point x="268" y="158"/>
      <point x="237" y="140" type="curve" smooth="yes"/>
      <point x="208" y="123"/>
      <point x="175" y="111"/>
      <point x="142" y="106" type="curve"/>
      <point x="120" y="106" type="line"/>
      <point x="93" y="-4" type="line"/>
      <point x="93" y="-4"/>
      <point x="105" y="-4"/>
      <point x="214" y="-2" type="curve" smooth="yes"/>
      <point x="359" y="0"/>
      <point x="375" y="1"/>
      <point x="375" y="1" type="curve"/>
      <point x="407" y="132" type="line"/>
      <point x="412" y="152"/>
      <point x="394" y="193"/>
      <point x="382" y="219" type="curve"/>
      <point x="407" y="259"/>
      <point x="423" y="301"/>
      <point x="432" y="347" type="curve" smooth="yes"/>
      <point x="443" y="403"/>
      <point x="443" y="464"/>
      <point x="437" y="532" type="curve" smooth="yes"/>
      <point x="434" y="564"/>
      <point x="437" y="574"/>
      <point x="459" y="593" type="curve"/>
    </contour>
    <contour>
      <point x="296" y="121"/>
      <point x="321" y="144"/>
      <point x="339" y="163" type="curve"/>
      <point x="351" y="138"/>
      <point x="358" y="119"/>
      <point x="361" y="111" type="curve"/>
      <point x="337" y="106"/>
      <point x="264" y="106"/>
      <point x="264" y="106" type="curve"/>
    </contour>
    <contour>
      <point x="237" y="0" type="move" name="caret_1"/>
    </contour>
    <contour>
      <point x="96" y="-34" type="move" name="bottom_1"/>
    </contour>
    <contour>
      <point x="381" y="699" type="move" name="top_1"/>
    </contour>
    <contour>
      <point x="27" y="652" type="move" name="top_2"/>
    </contour>
    <contour>
      <point x="321" y="-34" type="move" name="bottom_2"/>
    </contour>
  </outline>
</glyph>
<glyph name="heh_alefMaksura-ar.fina" format="1">
  <advance width="918"/>
  <outline>
    <contour>
      <point x="70" y="-58"/>
      <point x="79" y="-117"/>
      <point x="121" y="-163" type="curve" smooth="yes"/>
      <point x="150" y="-195"/>
      <point x="204" y="-218"/>
      <point x="278" y="-218" type="curve" smooth="yes"/>
      <point x="325" y="-218"/>
      <point x="381" y="-201"/>
      <point x="427" y="-175" type="curve" smooth="yes"/>
      <point x="472" y="-151"/>
      <point x="507" y="-120"/>
      <point x="517" y="-89" type="curve" smooth="yes"/>
      <point x="521" y="-76"/>
      <point x="524" y="-58"/>
      <point x="531" y="-25" type="curve" smooth="yes"/>
      <point x="537" y="3"/>
      <point x="532" y="21"/>
      <point x="521" y="32" type="curve" smooth="yes"/>
      <point x="510" y="45"/>
      <point x="492" y="50"/>
      <point x="473" y="54" type="curve" smooth="yes"/>
      <point x="449" y="59"/>
      <point x="425" y="62"/>
      <point x="413" y="76" type="curve"/>
      <point x="417" y="86"/>
      <point x="440" y="106"/>
      <point x="471" y="121" type="curve" smooth="yes"/>
      <point x="495" y="133"/>
      <point x="544" y="143"/>
      <point x="570" y="143" type="curve" smooth="yes"/>
      <point x="604" y="143"/>
      <point x="613" y="126"/>
      <point x="608" y="89" type="curve"/>
      <point x="604" y="47"/>
      <point x="601" y="36"/>
      <point x="601" y="7" type="curve" smooth="yes"/>
      <point x="601" y="-36"/>
      <point x="610" y="-72"/>
      <point x="640" y="-116" type="curve" smooth="yes"/>
      <point x="663" y="-150"/>
      <point x="697" y="-180"/>
      <point x="743" y="-199" type="curve"/>
      <point x="743" y="-94" type="line"/>
      <point x="732" y="-87"/>
      <point x="721" y="-80"/>
      <point x="711" y="-73" type="curve"/>
      <point x="714" y="-45"/>
      <point x="724" y="-27"/>
      <point x="742" y="-17" type="curve"/>
      <point x="765" y="-2"/>
      <point x="801" y="0"/>
      <point x="849" y="0" type="curve" smooth="yes"/>
      <point x="918" y="0" type="line"/>
      <point x="918" y="106" type="line"/>
      <point x="858" y="106" type="line" smooth="yes"/>
      <point x="800" y="106"/>
      <point x="752" y="89"/>
      <point x="720" y="56" type="curve" smooth="yes"/>
      <point x="696" y="30"/>
      <point x="682" y="-5"/>
      <point x="682" y="-49" type="curve"/>
      <point x="658" y="-19"/>
      <point x="658" y="16"/>
      <point x="658" y="47" type="curve" smooth="yes"/>
      <point x="658" y="124"/>
      <point x="675" y="150"/>
      <point x="657" y="185" type="curve" smooth="yes"/>
      <point x="643" y="212"/>
      <point x="616" y="221"/>
      <point x="572" y="221" type="curve" smooth="yes"/>
      <point x="534" y="221"/>
      <point x="465" y="202"/>
      <point x="424" y="171" type="curve" smooth="yes"/>
      <point x="394" y="148"/>
      <point x="368" y="117"/>
      <point x="355" y="82" type="curve" smooth="yes"/>
      <point x="348" y="63"/>
      <point x="346" y="39"/>
      <point x="355" y="19" type="curve" smooth="yes"/>
      <point x="362" y="3"/>
      <point x="376" y="-11"/>
      <point x="403" y="-15" type="curve" smooth="yes"/>
      <point x="466" y="-25"/>
      <point x="479" y="-29"/>
      <point x="481" y="-41" type="curve"/>
      <point x="457" y="-62"/>
      <point x="429" y="-78"/>
      <point x="396" y="-89" type="curve" smooth="yes"/>
      <point x="362" y="-100"/>
      <point x="324" y="-105"/>
      <point x="281" y="-105" type="curve" smooth="yes"/>
      <point x="229" y="-105"/>
      <point x="190" y="-90"/>
      <point x="164" y="-72" type="curve" smooth="yes"/>
      <point x="124" y="-44"/>
      <point x="109" y="-7"/>
      <point x="110" y="34" type="curve" smooth="yes"/>
      <point x="111" y="82"/>
      <point x="134" y="124"/>
      <point x="143" y="134" type="curve"/>
      <point x="127" y="150" type="line"/>
      <point x="105" y="126"/>
      <point x="94" y="98"/>
      <point x="87" y="76" type="curve" smooth="yes"/>
      <point x="70" y="24"/>
      <point x="70" y="-18"/>
      <point x="70" y="-20" type="curve" smooth="yes"/>
    </contour>
    <contour>
      <point x="449" y="0" type="move" name="caret_1"/>
    </contour>
    <contour>
      <point x="631" y="-230" type="move" name="bottom_1"/>
    </contour>
    <contour>
      <point x="552" y="251" type="move" name="top_1"/>
    </contour>
    <contour>
      <point x="269" y="91" type="move" name="top_2"/>
    </contour>
    <contour>
      <point x="288" y="-248" type="move" name="bottom_2"/>
    </contour>
  </outline>
</glyph>
